<?xml version="1.0" standalone="no"?>
<!DOCTYPE svg PUBLIC "-//W3C//DTD SVG 20010904//EN"
 "http://www.w3.org/TR/2001/REC-SVG-20010904/DTD/svg10.dtd">
<svg version="1.0" xmlns="http://www.w3.org/2000/svg"
 width="1024.000000pt" height="1024.000000pt" viewBox="0 0 1024.000000 1024.000000"
 preserveAspectRatio="xMidYMid meet">
<metadata>
Created by potrace 1.11, written by Peter Selinger 2001-2013
</metadata>
<g transform="translate(0.000000,1024.000000) scale(0.100000,-0.100000)"
fill="#000000" stroke="none">
<path d="M876 10229 c-375 -55 -697 -322 -819 -680 -61 -177 -57 143 -57
-4429 0 -4572 -4 -4252 57 -4429 112 -327 386 -576 729 -663 l89 -23 4245 0
4245 0 89 23 c343 87 617 336 729 663 61 177 57 -143 57 4429 0 3716 -2 4187
-15 4266 -39 219 -128 390 -286 552 -127 128 -283 219 -469 270 l-95 27 -4220
1 c-2339 1 -4246 -2 -4279 -7z m3384 -2784 c361 -42 685 -182 941 -407 l54
-48 -80 -157 c-88 -173 -110 -204 -155 -223 -61 -25 -110 -9 -240 79 -248 167
-419 232 -658 252 -411 33 -755 -116 -888 -386 -56 -115 -78 -220 -71 -350 10
-216 88 -340 306 -483 117 -77 237 -127 580 -243 607 -207 820 -310 1001 -489
134 -134 228 -291 270 -453 27 -106 43 -295 35 -412 -48 -724 -512 -1219
-1246 -1331 -137 -21 -446 -21 -591 0 -119 17 -274 54 -388 93 -125 42 -375
176 -491 262 -112 83 -249 206 -249 224 0 22 183 308 215 336 42 36 93 48 145
32 21 -6 98 -56 171 -111 74 -54 170 -120 213 -146 97 -58 277 -135 367 -157
176 -44 449 -47 621 -8 307 70 519 255 610 531 26 81 31 115 36 227 5 153 -6
229 -48 318 -42 89 -92 149 -184 221 -126 100 -259 161 -580 265 -362 116
-438 143 -568 195 -329 133 -507 269 -649 499 -108 175 -151 347 -152 610 -1
181 9 250 59 402 149 458 564 783 1094 858 129 18 369 18 520 0z m3610 -1628
c0 -1727 1 -1702 -55 -1949 -64 -284 -179 -514 -347 -693 -188 -201 -476 -342
-788 -385 -110 -15 -388 -15 -512 0 -93 11 -375 64 -383 72 -9 8 35 391 47
415 7 14 26 36 41 47 38 28 122 27 247 -3 123 -31 352 -34 475 -7 376 82 571
322 639 787 14 93 16 309 16 1708 l0 1601 310 0 310 0 0 -1593z"/>
</g>
</svg>
